<?xml version="1.0" encoding="UTF-8"?>
<svg id="uuid-502fa8cf-d6d5-4c4d-89f1-3691d3c33936" data-name="图层 1" xmlns="http://www.w3.org/2000/svg" viewBox="0 0 1024 1024">
  <path d="m123.69,519.25c-.09-5.76-3.52-10.36-5.4-15.5-2.68-7.34-5.51-14.63-8.5-21.84-.73-1.77-.05-3.12.15-4.66,7.85.76,15.64,2.07,23.58,1.65,5.19-.28,8.81-3.88,8.78-9.02-.04-5.67-4.66-9.56-11.62-9.59-10.05-.05-19.91-1.45-29.62-4.01.82-7.01-2.09-13.44-3.15-20.16-1.51-9.52-3.27-18.99-4.93-28.48,6.3-9.08,15-15.73,23.46-22.49,19.89-15.89,41.65-28.94,64.12-40.84,2.32,7.28,4.83,14.5,6.93,21.85,3.78,13.24,9.86,18.25,23.48,18.88.05,8.67,5.37,16.15,13.23,19.44,12.12,5.08,24.3,3.27,36.27.2,37-9.47,73.84-19.56,110.85-29,35-8.93,69.34-20.05,103.84-30.63,23.74-7.28,47.6-14.18,71.26-21.71,15.72-5,31.83-9.28,45.61-18.99,9.87-6.96,17.84-15.38,18.01-28.36.06-4.47-.53-9.36-4.99-12.32,5.1-7.66,5.37-15.66,2.29-24.21-2.58-7.16-4.57-14.53-6.82-21.81,6.12.53,12.23,1.1,18.35,1.57,24.96,1.92,49.57,6.1,73.76,12.47,5.81,1.53,12.15,2.2,17.11,6.28-3.49,9.31-7.46,18.47-10.37,27.96-12.27,40.03,6.8,71.42,40.02,87.64,8.56,5.09,18.05,7.82,27.58,10.19,43.5,10.82,79.84-7.69,96.79-49.24,9.09-22.28,17.95-44.65,26.91-66.98,7.32,3.19,11.89,9.44,15.36,15.96,10.85,20.38,11.05,41.49,4.25,63.47-3.59,11.6-8.42,22.4-14.02,33.01-3.65,1.99-3.07,6.43-5.53,9.32-7.84,9.23-15.87,18.23-25.26,25.92-26.2,21.45-55.47,37.06-88.03,46.44-8.88-23.38-18.14-46.56-34.55-66-17.55-20.79-41.79-27.97-66.76-15.83-23.71,11.53-40.99,30.45-55.99,51.56-9.19,12.94-17.35,26.54-23.25,41.37-.8,2.01-1.44,4.17-4.57,4.32-20.87.95-41.68,2.58-62.47,4.7-25.03,2.55-49.91,6.03-74.67,10.44-2.39.43-4.06.05-5.18-2.46-1.03-2.31-2.64-4.36-3.98-6.53-17.86-28.89-41.37-51.63-72.44-65.9-12.6-5.79-25.9-8.66-39.84-6.17-22.06,3.94-35.3,18.43-44.53,37.66-7.94,16.54-11.84,34.24-14.19,52.21-2.33,17.83-3.45,35.82.51,53.66-2.52-.46-3.42-2.41-3.88-4.54-.32-1.5-1.17-2.39-2.43-1.86-7.66,3.22-16.91,2.76-22.96,9.76-6.18-13.15-12.51-26.24-21.85-37.52-10.25-12.38-22.7-20.1-39.61-17.64-10.16,1.48-18.13,7.16-25.69,13.54-10.83,9.15-22.32,17.26-35.44,22.82Z" style="fill: #d9e9fb; stroke-width: 0px;"/>
  <path d="m210.98,385.04c-13.62-.63-19.7-5.64-23.48-18.88-2.1-7.34-4.61-14.57-6.93-21.85-1.77-5.85-3.54-11.71-5.31-17.56-2.98-9.68-5.97-19.37-8.95-29.05-6.49-20.94-13-41.88-19.46-62.84-4.88-15.81,1.21-28.27,16.95-33.41,40.51-13.23,81.11-26.16,121.66-39.28,44.91-14.53,89.8-29.09,134.68-43.71,36.46-11.88,72.86-23.95,109.35-35.73,13.94-4.5,27.33,2.65,32.24,16.58,1.96,5.56,4.04,11.08,6.06,16.62,8.75,27.16,17.49,54.31,26.24,81.47,2.17,6.75,4.34,13.49,6.51,20.24,2.25,7.28,4.24,14.65,6.81,21.81,3.07,8.54,2.8,16.55-2.29,24.21-3.62,3.48-7.49,6.5-12.43,7.97-39.2,11.62-78.34,23.43-117.58,34.91-58.46,17.1-117.03,33.78-175.45,51.01-29.66,8.75-59.09,18.3-88.62,27.48Zm97.57-85.69c1.61,5.32,3.65,11.99,5.65,18.67,1.9,6.33,5.18,8.38,11.47,6.57,12.01-3.47,23.96-7.14,35.92-10.76,31.26-9.46,62.53-18.91,93.77-28.45,7.77-2.37,9.65-5.97,7.38-13.61-1.57-5.28-3.33-10.52-5.04-15.76-2.02-6.18-5.48-8.18-11.69-6.43-6.47,1.83-12.86,3.94-19.28,5.92-36.99,11.45-73.98,22.9-110.97,34.33-4.04,1.25-7.09,3.26-7.22,9.51Zm194.07-82.36c.43-.05,1.4-.03,2.29-.28,18.01-5.04,35.85-10.6,53.31-17.29,4.95-1.9,6.88-5.97,5.38-11.14-1.98-6.84-4.21-13.62-6.43-20.4-1.96-5.99-6.19-8.25-12.26-6.28-17.14,5.54-34.25,11.18-51.34,16.87-5.39,1.8-7.77,6.24-6.19,11.77,2,6.98,4.22,13.9,6.52,20.79,1.27,3.81,4.02,5.96,8.71,5.95Zm-272.64-12.38c.38-.04-.72-.05-1.75.22-15.65,4.05-31.11,8.69-45.73,15.72-6.19,2.97-7.75,6.65-5.83,13.17,1.6,5.42,3.42,10.78,5,16.21,1.7,5.82,5.84,7.9,11.19,6.3,15.99-4.77,31.88-9.85,47.73-15.07,5.31-1.75,7.2-5.95,5.57-11.3-2-6.57-4.2-13.08-6.47-19.56-1.33-3.81-4.02-5.99-9.72-5.68Zm129.79,49.69c-2.23-7.98-4.4-17.02-8.35-25.42-1.6-3.39-5.3-4.74-9.03-3.6-9.51,2.9-18.99,5.91-28.37,9.2-5.82,2.04-7.8,6.26-6.09,12.14,1.99,6.84,4.14,13.63,6.34,20.4,1.71,5.26,5.54,7.23,10.71,5.69,9.66-2.86,19.25-5.95,28.81-9.12,3.8-1.26,5.81-4.18,5.98-9.29Zm-43.14-69.45c2.36,7.33,4.81,16.13,8.1,24.6,1.39,3.56,5.19,5.03,9.24,3.72,9.57-3.12,19.18-6.15,28.64-9.59,4.72-1.72,6.99-5.42,5.45-10.6-2.02-6.82-4.13-13.62-6.32-20.39-2.04-6.31-6.04-8.5-12.44-6.51-8.85,2.74-17.62,5.72-26.38,8.72-3.97,1.36-5.95,4.38-6.29,10.06Zm111.02-8.42c-2.76-8.24-4.57-17.68-8.84-26.23-1.85-3.71-5.83-4.63-9.86-3.35-8.32,2.65-16.63,5.33-24.88,8.2-6.09,2.12-8.43,6.99-6.53,13.12,2.07,6.68,4.23,13.33,6.42,19.97,1.78,5.38,5.54,7.57,10.96,5.91,8.87-2.7,17.65-5.67,26.45-8.57,3.9-1.28,5.76-4.17,6.27-9.05Zm-155.22,55.88c9.54-3.24,20.7-6.69,31.56-10.92,3.33-1.29,4.51-5.21,3.36-9.06-2.03-6.83-4.04-13.66-6.22-20.44-1.76-5.48-6.14-8.07-11.67-6.36-9.23,2.87-18.39,6.01-27.43,9.43-5.23,1.97-7.39,6.13-5.69,11.69,2.08,6.81,4.27,13.6,6.61,20.33,1.23,3.55,4.04,5.22,9.48,5.34Zm308.68,8.65c-2.78-8.4-5.15-16.96-8.52-25.12-1.63-3.96-5.92-4.79-10.13-3.44-8.7,2.79-17.41,5.56-26.07,8.48-5.56,1.87-7.97,6.53-6.29,12.09,2.02,6.7,4.18,13.35,6.31,20.01,1.76,5.5,5.64,7.47,10.98,5.84,9.12-2.79,18.17-5.85,27.19-8.95,4-1.37,6.01-4.36,6.53-8.9Zm-144.86-94.84c2.22,7.72,4.17,16.95,8.18,25.49,1.8,3.84,5.5,5.02,9.64,3.68,8.44-2.72,16.89-5.4,25.26-8.32,5.64-1.97,7.94-6.44,6.26-12.15-2.09-7.09-4.37-14.13-6.78-21.11-1.85-5.38-6.1-7.47-11.51-5.75-8.2,2.6-16.36,5.32-24.5,8.1-4.04,1.38-6.57,4.09-6.55,10.06Zm-16.61,88.49c-2.3-7-4.83-15.77-8.12-24.25-1.37-3.53-5.34-4.84-8.97-3.75-9.38,2.8-18.73,5.81-27.9,9.23-4.85,1.81-6.85,5.87-5.27,11.12,2.13,7.07,4.2,14.17,6.56,21.17,1.6,4.75,5.01,6.94,10.08,5.36,9.23-2.86,18.46-5.74,27.62-8.83,3.74-1.26,5.92-4.07,6-10.06Zm91.96-77.58c8.45-3.19,18.97-5.23,28.47-10.05,3.47-1.76,4.65-5.71,3.5-9.55-2.27-7.61-4.68-15.19-7.43-22.63-1.9-5.14-5.9-7.24-11.32-5.54-7.83,2.46-15.62,5.04-23.39,7.66-5.69,1.91-7.88,6.2-6.46,11.75,1.93,7.55,4.42,14.97,6.86,22.38,1.24,3.78,3.86,6.1,9.77,6Zm-83.38,49.37c2.4,7.14,4.96,15.92,8.37,24.36,1.39,3.46,5.24,4.5,9.06,3.29,8.98-2.83,17.97-5.63,26.89-8.63,5.2-1.75,7.06-5.68,5.59-10.87-1.94-6.86-4.08-13.67-6.33-20.43-1.89-5.69-5.95-7.81-11.72-6.01-8.73,2.72-17.4,5.64-26.05,8.59-3.71,1.26-5.51,4.1-5.8,9.7Zm-146.04,37.84c-7.82,2.52-17.06,5.36-26.2,8.49-6.46,2.21-8.6,6.39-6.72,12.98,1.89,6.59,3.94,13.15,6.25,19.61,1.61,4.51,5.08,6.78,9.85,5.29,9.11-2.84,18.18-5.85,27.14-9.14,5.07-1.87,7.37-5.8,5.71-11.26-2.07-6.82-4.26-13.61-6.57-20.35-1.25-3.66-3.91-5.71-9.46-5.61Zm-76.29,64.03c9.38-3.14,20.26-5.77,30.35-10.58,2.94-1.4,4.19-4.55,3.45-7.96-1.7-7.78-4.23-15.32-7.21-22.68-1.78-4.38-5.51-5.99-9.94-4.56-8.96,2.89-17.85,6.01-26.69,9.23-5.13,1.87-6.93,5.86-5.48,11.01,1.86,6.6,3.98,13.13,6.08,19.67,1.26,3.9,3.96,5.98,9.45,5.87Zm315.44-47.48c0-3.1-6.72-24.64-7.99-26.54-2.67-4.01-6.41-4.58-10.65-3.25-7.82,2.46-15.64,4.94-23.41,7.55-5.27,1.77-7.59,5.99-6.08,11.45,1.9,6.86,4.04,13.67,6.29,20.43,1.78,5.36,5.65,7.42,11.07,5.81,8.24-2.45,16.45-5.04,24.62-7.72,4.01-1.32,5.93-4.39,6.15-7.73Zm-272.51,80.79c-2.59-7.67-4.11-16.26-8.21-23.89-1.91-3.56-5.69-3.72-9.33-2.6-6.81,2.09-13.64,4.17-20.39,6.44-4.79,1.61-6.91,5.23-5.65,10.09,1.76,6.77,3.8,13.48,6.17,20.05,1.51,4.19,4.77,6.67,9.51,5.29,7.36-2.15,14.65-4.52,21.93-6.93,3.7-1.23,5.56-4.05,5.97-8.44Zm8.06-26.62c2.05,7.07,3.89,15.23,7.55,22.71,1.49,3.05,4.82,4.25,8.36,3.15,7.43-2.31,14.89-4.53,22.21-7.16,4.34-1.56,6.25-5.05,4.93-9.66-1.85-6.45-3.72-12.91-5.99-19.22-1.71-4.74-5.23-7.13-10.47-5.56-6.94,2.08-13.86,4.23-20.76,6.45-3.95,1.27-5.66,4.26-5.83,9.3Z" style="fill: #719ef9; stroke-width: 0px;"/>
  <path d="m743.52,871.1c-3.72,4.38-8.86,6.98-13.59,9.83-12.7,7.68-25.44,15.5-38.9,21.66-13.13,6.01-25.99,12.69-40.08,16.77-14.14,4.1-27.65,10.37-42.14,13.47-9.39,2.01-18.84,3.77-28.29,5.45-13.59,2.41-27.21,5.08-41.02,5.39-17.83.41-35.63,1.79-53.54.46-17.11-1.27-34.24-2.44-50.96-6.11-12.96-2.85-26.38-4-38.79-8.87-6.23-2.44-12.57-4.17-18.95-5.92-4.16-1.14-7.36,1.82-10.56,3.52-16.7,8.89-34.25,12.44-53.23,11.95-9.38-.24-18.55-.88-27.16-3.88-20.62-7.18-37.39-18.75-41.91-42.2-.42-2.17-.55-4.27.57-6.28,9.01,7.87,18.9,14.38,30.39,17.89,38.12,11.62,71.38,2.33,100.48-24,10.27-9.29,18.12-20.56,25.7-32.03.68,1.09,1.78.99,2.86,1.07,13.47,1.05,26.92,2.62,40.41,3.09,24.83.86,49.66.32,74.04-5.17,37.63-8.48,73.33-22.53,108.13-38.83,16.95-7.94,34.32-13.43,53.01-15.08,5.3-.47,11.07.19,15.92-3.11,9.41,11.07,18.83,22.13,28.24,33.2-2.71,3.65-.87,7.63-.34,11.26,2.12,14.47,9.79,26.11,19.69,36.47Z" style="fill: #ddebfb; stroke-width: 0px;"/>
  <path d="m777.45,441.66c32.56-9.38,61.83-24.99,88.03-46.44,9.39-7.69,17.42-16.69,25.26-25.92,2.45-2.89,1.88-7.33,5.53-9.32-1.87,4.64,2.35,6.32,4.43,8.98,6.67,8.49,12.4,17.53,17.9,26.86,8.88,15.08,17.86,30.02,24.37,46.32,7.9,19.76,13.3,40.21,17.09,61.11,3.95,21.85,5.83,43.89,4.78,66.06-.76,16.18-2.82,32.25-7.05,47.97-.28,1.05-.26,2.2-1.73,2.31-4.53-10.74-14.07-12.27-21.46-3.03-6.4,8.01-13.43,15.39-20.94,22.27-7.28,6.67-14.81,13.17-24.01,17.25-.95-3-1.91-6.01-2.86-9.01-1.17-4.55-2.22-9.14-3.51-13.65-13.67-47.9-33.28-92.71-68.03-129.5-8.57-9.07-17.08-18.35-28.91-23.45-.86-13.41-4.79-26.12-8.9-38.79Z" style="fill: #ddebfb; stroke-width: 0px;"/>
  <path d="m739.39,353.57c-33.22-16.22-52.29-47.6-40.02-87.64,2.91-9.49,6.89-18.65,10.37-27.96,3.83-6.32,6.35-13.23,8.98-20.09.84-1.45,1.69-2.89,2.53-4.34,12.89,4.9,25.7,9.99,38.68,14.63,9.05,3.23,17.55,8.01,27.15,9.68.07,8.42,3.53,13.56,9.81,14.6,6.36,1.05,11.84-2.83,14.76-10.44,5.35-13.94,12.26-27.51,15.61-41.91,3.01-12.96,7.18-25.37,11.19-37.93,1.51-4.74,4.2-5.76,8.11-4.27,8.21,3.12,15.69,7.58,22.22,13.52.29.31.58.62.87.93,0,0-.02-.11-.02-.11.13.52.11,1.14.4,1.53,15.12,20.36,14.22,42,4.75,64.09-7.05,16.43-14.47,32.71-22.04,48.91-4.49,9.61-7.95,19.76-14.09,28.53-10.35,14.79-24.47,24.86-41.09,31.28-15.28,5.91-31.11,8.83-47.67,7.19-3.39-.33-7-2.18-10.51-.19Z" style="fill: #89b2fb; stroke-width: 0px;"/>
  <path d="m123.69,519.25c13.13-5.57,24.61-13.68,35.44-22.82,7.56-6.38,15.53-12.06,25.69-13.54,16.91-2.46,29.36,5.26,39.61,17.64,9.34,11.28,15.66,24.37,21.85,37.52,3.03,7.32,6.07,14.64,9.1,21.96-.19.76-.16,1.7-.61,2.25-5.26,6.33-8.78,13.71-12.64,20.88-6.09,11.35-9.8,23.71-14.96,35.45-12.58-.13-21.99-7.16-30.08-15.41-9.87-10.08-20.27-10.81-32.16-5.08-7.22,1.8-13.89,5.05-20.74,7.84-8.87,3.62-14.27,9.87-16.75,19.27-2.43,9.22-5.56,18.3-10.13,26.77-2.36,3.61-4.95,7.02-8.04,10.06-15.94,15.67-38.01,11.72-46.76-8.82-8.11-19.05-12.25-39.24-15.46-59.61-1.17-7.44-1.96-14.93-1.94-22.5.1-29.67,22.73-49.99,52.08-45.82,10,1.42,18.16-1.88,26.49-6.04Zm-45.78,76.8c.88-.26,2.31-.39,3.42-1.05,5.6-3.35,8.22-1.81,9.51,4.59,1.21,5.98,5.54,7.82,11.33,5.87,6-2.01,8.59-6.58,5.98-12.18-2.6-5.58-1.88-8.32,4.45-10.09,6.44-1.8,8.17-6.3,5.97-12.18-2.05-5.5-6.41-7.5-12.39-4.51-5.34,2.68-7.42,1.15-8.19-4.14-.08-.53-.29-1.04-.48-1.54-2.07-5.39-6.07-6.38-11.11-4.78-5.33,1.7-8.48,6.17-6.5,10.68,2.88,6.56,1.98,10.5-5.56,11.76-.51.08-1.01.39-1.44.7-3.46,2.52-4.5,5.87-3.3,9.94,1.16,3.95,3.43,6.66,8.3,6.94Zm98.1-59.01c-5.51-.03-9.98,4.39-10.1,9.97-.11,5.32,4.36,9.97,9.59,9.99,5.53.02,10.21-4.43,10.34-9.84.14-5.58-4.25-10.1-9.83-10.13Zm33.31,21.03c-.08-5.44-4.37-9.71-9.72-9.69-5.67.03-10.12,4.36-10.1,9.83.03,5.61,4.52,10.15,9.91,10.02,5.42-.13,9.99-4.81,9.9-10.17Zm-7.89-23.2c0,5.16,4.32,9.72,9.33,9.84,5.31.13,10.2-4.54,10.32-9.85.12-5.45-4.13-9.87-9.54-9.92-5.49-.05-10.1,4.48-10.1,9.92Zm-3.22-11.64c.08-5.6-4-10.08-9.25-10.16-5.4-.09-10.12,4.41-10.27,9.8-.16,5.44,4.34,10.08,9.81,10.13,5.28.04,9.64-4.33,9.71-9.76Z" style="fill: #608ef0; stroke-width: 0px;"/>
  <path d="m886.8,647.06c.95,3,1.91,6.01,2.86,9.01.96,4.53,1.91,9.06,2.87,13.59-3.11-.16-2.98,1.95-2.6,3.97.44,2.34,1.79,3.09,3.95,1.73.43.82.86,1.63,1.29,2.45,3.63,19.4,7.92,38.68,10.31,58.3.35,12.2,1.4,24.41-.15,36.6-2.86,22.55-9.53,43.51-25.16,60.76-.35.39-.56.91-.83,1.37-.58.53-1.2,1.04-1.74,1.6-16.37,16.91-36.17,26.55-59.73,28.22-4.85-1.37-9.7-1.33-14.55-.03-5.7.05-11.23-1.12-16.7-2.52-17.88-4.59-33.5-13.53-47.75-25.06-.6-.52-1.2-1.05-1.8-1.57-4.3-4.04-8.61-8.07-12.91-12.11-9.41-11.07-18.83-22.13-28.24-33.2-2.56-3.1-4.98-6.34-7.7-9.29-15.71-17.03-31.99-33.24-56.18-37.59,12.51-5.63,25.58-9.27,39.13-11.43,3.68-.59,7.75.56,11.07-2.01,7.18,2.83,12.5,8.28,18.32,13.03,4.85,5.22,9.77,10.39,14.55,15.68,14.35,15.87,27.56,32.82,43.93,46.77,13.89,11.84,29.2,21.02,47.89,22.1,30.77,1.77,57.6-18.45,65.89-49.38,8.55-31.89,2.73-63.33-3.52-94.71-1.59-8.19-3.18-16.38-4.78-24.58,3.17-1.32,5.19-3.58,6.45-6.84,1.08-2.8,3.61-4.11,6.2-5.7,3.86-2.36,6.45.59,9.61.82Z" style="fill: #4f80ed; stroke-width: 0px;"/>
  <path d="m117.31,651.98c4.57-8.47,7.7-17.54,10.13-26.77,2.48-9.4,7.87-15.66,16.75-19.27,6.85-2.79,13.52-6.04,20.74-7.84-1.72,5.42-2.35,11.08-2.34,16.65.06,16.8,4.39,32.38,14.81,45.87,8.86,11.48,19.79,19.93,34.36,22.85-2.97,19.1-5.24,38.28-6.02,57.61-.94,23.28.27,46.41,4.45,69.36-.02.81-.03,1.62-.05,2.44-8.4-5.82-15.9-12.72-22.8-20.17-11.41-12.31-22.07-25.25-30.93-39.59-11.55-18.7-20.9-38.44-27.98-59.26-.42-1.25-.48-2.62-.7-3.93.06-.1.12-.2.18-.3-.06.1-.11.21-.17.31-3.7-5.81-3.48-12.81-5.75-19-2.28-6.21-1.71-13.02-4.69-18.97Z" style="fill: #ddebfb; stroke-width: 0px;"/>
  <path d="m210.15,812.89c.02-.81.03-1.62.05-2.44,1.31-.14,2.66-.55,3.92-.35,1.69.26,3.3.74,3.96-1.39.6-1.97-1.08-2.43-2.34-3.17-.73-.43-1.9-.51-1.84-1.74,2.77-1.04,5.89,2.4,8.43-.71,4.09-5.02,2.63-8.12-5.53-10.25-2.74-.72-2.76-2.08-2.53-3.95.35-2.86,1.09-5.77,4.32-6.58,2.48-.62,3,1.64,3.68,3.38,2.66,6.78,6.33,12.4,14.64,12.63.29,2.65.58,5.31.87,7.96-1.02,3.36-11.58-1.48-6.29,7.32.03.05-.11.24-.21.33-3.72,3.07-1.56,6.06.14,9.04,1.7,2.99,2.02,7.11,5.46,8.66,2.79,1.25,3.23,2.95,3.24,5.6.04,6.86,5.95,10.66,12.09,7.95.49.63,1.04,1.23,1.47,1.9,14.51,23.07,37.97,33.36,64.65,28.14,21.78-4.26,36.59-18.48,49.19-35.44,17.26-23.25,28.03-50.61,46.08-73.38,3.03-2.56,5.25-6.01,8.83-7.96,13.08.98,25.82,3.67,38.33,7.58-7.8,4.15-14.65,9.42-20.41,16.2-16.78,19.75-26.4,43.68-38.79,66-7.59,11.47-15.43,22.74-25.7,32.03-29.11,26.34-62.36,35.62-100.48,24-11.5-3.5-21.38-10.02-30.39-17.89-9.77-9.8-17.77-20.8-22.72-33.84-1.3-5.06.12-11.17-5.54-14.57-.8-2.71-1.6-5.42-2.39-8.14,3.58-6.77-1.06-11.68-3.85-17.01l-.33.09Z" style="fill: #4f80ed; stroke-width: 0px;"/>
  <path d="m721.26,213.54c-.84,1.45-1.69,2.89-2.53,4.34-14.6-3.95-29.05-8.35-43.93-11.28-26.7-5.25-53.56-8.65-80.77-9.18-8.75-27.16-17.49-54.31-26.24-81.47,10.9.65,21.18,4.11,31.62,6.91,7.01,1.87,13.65,4.82,20.58,6.79,18.03,5.13,34.93,12.88,51.51,21.37,20.9,10.71,40.75,23.19,59.59,37.25.29.22.77.19,1.16.28-1.96,4.53-3.92,9.06-5.88,13.6-2.1,3.62-3.99,7.34-5.11,11.41Z" style="fill: #d9e9fb; stroke-width: 0px;"/>
  <path d="m726.37,202.13c1.96-4.53,3.92-9.06,5.88-13.6,10.22-17.3,22.17-32.98,41.44-40.96,15.29-6.33,30.62-4.12,45.69,1.32,2.89,1.04,4.06,3.2,2.74,6.46-3.22,7.98-5.07,16.81-9.66,23.89-6.77,10.46-11.67,21.52-15.86,33.09-1.64,4.53-3.63,8.94-5.46,13.4-3.2.1-5.97-1.36-8.83-2.44-18.66-7.04-37.3-14.1-55.95-21.16Z" style="fill: #8ab2fb; stroke-width: 0px;"/>
  <path d="m739.39,353.57c3.51-1.99,7.12-.15,10.51.19,16.56,1.63,32.39-1.29,47.67-7.19,16.62-6.42,30.74-16.49,41.09-31.28,6.14-8.77,9.6-18.92,14.09-28.53,7.57-16.2,14.99-32.48,22.04-48.91,9.48-22.08,10.37-43.72-4.75-64.09-.29-.39-.27-1.01-.4-1.53,19.89,13.83,29.79,45.85,21.99,71.03-.43,1.39-.64,2.85-.96,4.28-8.96,22.33-17.82,44.7-26.91,66.98-16.95,41.56-53.29,60.06-96.79,49.24-9.53-2.37-19.01-5.1-27.58-10.19Z" style="fill: #6492f1; stroke-width: 0px;"/>
  <path d="m175.25,326.75c1.77,5.86,3.54,11.71,5.31,17.56-22.46,11.9-44.22,24.95-64.12,40.84-8.46,6.75-17.16,13.41-23.46,22.49-7.85,6.69-12.72,15.3-16.1,24.89-1.46,4.15-.56,7.92,1.92,11.39,5.47,7.61,13.55,10.55,22.25,12.37,9.71,2.56,19.56,3.96,29.62,4.01,6.96.03,11.59,3.93,11.62,9.59.03,5.14-3.58,8.74-8.78,9.02-7.94.42-15.74-.89-23.58-1.65-11.03-1.81-21.56-5.2-31.91-9.41-23.35-9.5-29.54-29.48-15.84-50.84,8.65-13.49,19.49-24.89,31.53-35.28,10.2-8.69,20.64-17.08,31.68-24.69,16.04-11.04,32.28-21.75,49.83-30.29Z" style="fill: #aecffb; stroke-width: 0px;"/>
  <path d="m724.17,823.37c4.3,4.04,8.61,8.07,12.91,12.11.05,1.15.67,1.65,1.8,1.57,14.26,11.53,29.87,20.47,47.75,25.06,5.47,1.41,11,2.57,16.7,2.52,4.85,1,9.7.93,14.55.03,23.56-1.67,43.35-11.31,59.73-28.22.55-.57,1.16-1.07,1.74-1.6-1.44,10.3-7.08,18.46-13.67,25.96-20.42,23.21-46.73,31.88-76.83,29.56-14.9-1.15-28.69-6.37-40.48-16.02-.36-2.33-1.78-3.31-4.06-3.21-.26,0-.53-.01-.79-.03-9.89-10.36-17.57-22-19.69-36.47-.53-3.63-2.37-7.6.34-11.26Z" style="fill: #d9e9fb; stroke-width: 0px;"/>
  <path d="m905.48,736.1c-2.39-19.62-6.68-38.9-10.31-58.3,1.85-.75,3.85-1.26,5.53-2.29,12.63-7.72,24.64-16.34,35.26-26.67,6.7-6.51,12.8-13.62,19.18-20.47-1.96,11.43-6.01,22.26-10.09,33.01-4.02,10.58-8.58,20.97-13.28,31.28-6.86,15.05-15.78,28.93-24.9,42.68-.26.38-.92.5-1.39.74Z" style="fill: #ddebfb; stroke-width: 0px;"/>
  <path d="m175.25,326.75c-17.56,8.54-33.8,19.24-49.83,30.29-11.05,7.61-21.48,16-31.68,24.69.16-8.67,5.3-15.29,9.33-22.31,13.62-23.72,33.07-41.89,55.33-57.26,2.47-1.71,4.43-4.46,7.9-4.45,2.98,9.68,5.97,19.37,8.95,29.05Z" style="fill: #ddebfb; stroke-width: 0px;"/>
  <path d="m955.15,628.39c-6.37,6.84-12.48,13.96-19.18,20.47-10.62,10.33-22.63,18.95-35.26,26.67-1.68,1.03-3.68,1.54-5.53,2.29-.43-.82-.86-1.63-1.29-2.45-.45-1.9-.9-3.8-1.35-5.7-.96-4.53-1.91-9.06-2.87-13.59,9.19-4.08,16.73-10.58,24.01-17.25,7.51-6.88,14.53-14.26,20.94-22.27,7.39-9.24,16.93-7.71,21.46,3.03-.15,2.95.62,6-.91,8.8Z" style="fill: #aecffb; stroke-width: 0px;"/>
  <path d="m688.48,147.32c-.02-7.27,4.99-12.12,9.03-17.05,4.9-5.99,10.12-11.83,16.26-16.73,5.6-4.46,13.23-5.46,17.89-1.92,4.67,3.55,6.7,10.74,4.2,15.94-1.03,2.14-2.44,4.33-4.24,5.81-8.35,6.88-14.66,15.75-22.66,22.94-4.1,3.69-9.02,4.08-13.93,1.75-4.39-2.09-6.56-5.8-6.55-10.74Z" style="fill: #aecffb; stroke-width: 0px;"/>
  <path d="m144.37,787.01c5.13-.78,8.16,2.5,10.52,6.11,4.63,7.08,10.66,12.68,17.22,17.86,8.05,6.36,9.44,14.17,3.53,19.85-4.2,4.03-9.38,4.61-14.02,1.54-10.6-7.02-19.57-15.87-26.48-26.63-2.7-4.2-3.61-8.77-.73-13.28,2.28-3.56,5.29-6.14,9.97-5.44Z" style="fill: #aecffb; stroke-width: 0px;"/>
  <path d="m940.29,349.49c-7.09-.03-12.54-7.05-9.14-13.98,5.55-11.32,11.06-22.63,16.03-34.23,1.92-4.49,8.59-6.24,13.37-4.36,5.54,2.18,7.97,6.47,6.31,12.19-3.73,12.85-9.6,24.76-16.85,35.98-2,3.1-5.22,4.54-9.71,4.39Z" style="fill: #aecffb; stroke-width: 0px;"/>
  <path d="m726.37,202.13c18.65,7.06,37.29,14.12,55.95,21.16,2.86,1.08,5.64,2.54,8.83,2.44-1.35,4.04-2.7,8.07-4.06,12.11-9.6-1.67-18.1-6.45-27.15-9.68-12.98-4.63-25.8-9.73-38.68-14.63,1.12-4.06,3.01-7.78,5.11-11.41Z" style="fill: #6492f1; stroke-width: 0px;"/>
  <path d="m800.74,216.43c.07-2.68,1.56-5.44,2.64-8.31,2.43-6.4,4.79-12.83,7.53-19.1,2.05-4.68,5.97-6.8,10.86-4.8,4.76,1.95,5.86,5.99,4.08,10.7-3.04,8.03-6.04,16.08-9.32,24.01-1.81,4.39-5.21,6.94-10.21,5.81-3.99-.9-5.53-3.91-5.58-8.33Z" style="fill: #5085f0; stroke-width: 0px;"/>
  <path d="m210.48,812.8c2.79,5.33,7.42,10.24,3.85,17.01-1.76-5.56-3.4-11.15-3.85-17.01Z" style="fill: #5085f0; stroke-width: 0px;"/>
  <path d="m216.72,837.95c5.66,3.4,4.24,9.51,5.54,14.57-2.58-4.58-4.41-9.44-5.54-14.57Z" style="fill: #5085f0; stroke-width: 0px;"/>
  <path d="m744.31,871.12c2.28-.1,3.7.88,4.06,3.21-2.04-.2-3.02-1.74-4.06-3.21Z" style="fill: #e5effb; stroke-width: 0px;"/>
  <path d="m869.66,172.34c-.29-.31-.58-.62-.87-.93.29.31.58.62.87.93Z" style="fill: #4371de; stroke-width: 0px;"/>
  <path d="m422.44,758.43c-3.58,1.95-5.8,5.4-8.83,7.96-1.16-.54-2.01-.04-2.92.68-7.18,5.61-14.42,11.15-21.59,16.78-17.42,13.68-34.53,27.94-55.7,35.62-30.18,10.95-59.92,4.56-79.01-23.85-9.49-14.13-14.64-29.8-18.22-46.17-.39-1.78-.53-3.22-2.83-2.82-.01-.55-.03-1.11-.04-1.66.77-.08,1.65-.14,1.74-1.1.13-1.26-.91-1.3-1.8-1.42-.29-28.74,2.66-57.2,7.77-85.44,6.69-37.03,17.83-72.37,40.95-102.85,2.41-3.17,3.09-5.86.36-8.79-2.35-2.53-1.57-7.92-6.95-7.68.06-1,.12-2.01.18-3.01-3.96-17.85-2.85-35.83-.51-53.66,2.35-17.97,6.25-35.68,14.19-52.21,9.23-19.22,22.47-33.71,44.53-37.66,13.94-2.49,27.24.38,39.84,6.17,31.07,14.27,54.58,37.01,72.44,65.9,1.34,2.17,2.95,4.22,3.98,6.53,1.12,2.52,2.78,2.89,5.18,2.46,24.76-4.41,49.64-7.89,74.67-10.44,20.79-2.11,41.6-3.75,62.47-4.7,3.13-.14,3.77-2.3,4.57-4.32,5.91-14.84,14.06-28.44,23.25-41.37,15-21.11,32.28-40.03,55.99-51.56,24.97-12.14,49.21-4.96,66.76,15.83,16.41,19.44,25.67,42.61,34.55,66,4.11,12.67,8.04,25.38,8.9,38.79-.66.43-1.81.77-1.9,1.29-.83,5.03-1.96,10.08-2,15.13-.02,2.86,3.6,4.06,5.57,5.99,26.53,25.99,43.16,58.04,56.53,92.12,8.16,20.8,13.9,42.34,19.99,63.79,1.59,8.19,3.18,16.38,4.78,24.58-2.21,1.24-1.25,3.36-1.3,5.1-.46,14.54-2.35,28.83-7.16,42.64-11.09,31.79-34.49,47.94-64.41,47.66-16.81-.16-32.58-5.72-47.83-12.65-15.03-6.84-29.42-14.9-43.95-22.72-1.12-.6-2.48-2.67-4.1-.49-5.82-4.75-11.14-10.2-18.32-13.03-8.44-6.17-18.24-8.79-28.28-10.74-20.06-3.9-39.93.14-59.78,1.95-28.74,2.62-57.41,6.05-86.07,9.42-19.47,2.29-39.06,4.26-57.62,11.13-10.34,3.83-20.31,8.52-28.05,16.82Zm124.82-131.84c3.74,6.39,9.48,9.31,16.03,8.13,7.22-1.3,12.49-6.38,13.59-13.12,1.04-6.32-2.2-12.87-7.89-15.96-8.01-4.34-16.26-1.29-22.59,8.37-2.4.17-4.79.45-7.19.49-6.23.09-12.33,2.35-18.09-3.61-5.36-5.54-16.32-3.2-20.82,2.89-5.03,6.82-4.21,16.68,1.8,21.58,6.73,5.48,17.66,5.37,21.98-1.69,4.14-6.77,10.14-5.85,15.93-6.81,2.37-.39,4.83-.21,7.25-.29Zm206.81,37.45c-.06-1.07-.15-2.15-.18-3.22-.42-14.3-10.48-27.06-24.05-30.49-14.58-3.68-29.44,2.53-36.87,15.08-6.99,11.8-6.51,23.49-.24,35.3.7,8.47,5.68,14.36,12.17,18.93,14.35,10.12,37.21,5.58,46.43-9.46,4.92-8.02,7.82-16.8,2.75-26.14Zm-60.74-50.15c0-1.48.03-2.96,0-4.44-.34-14.02-9.53-26.15-23.27-30.72-12.8-4.26-27.34.17-35.73,11.16-9.58,12.55-9.28,25.8-2.27,39.38-.14,8.11,5.13,13.1,10.71,17.53,18.29,14.51,46.76,4.64,51.94-18.03,1.11-4.88,1.92-10.18-1.37-14.87Zm56.78,11.26c-1.44,1.39-.99,2.84-.23,4.39,1.42,2.9,3.28,5.45,5.31,7.98,8.95,11.12,20.65,14.15,33.86,10.81,12.74-3.22,21.15-11.77,23.6-24.77.92-4.88,2.52-10.84-2.22-15.35,0-1.48.03-2.96.02-4.43-.03-24.03-24.89-40.05-46.72-30.19-17.85,8.07-27.21,32.02-13.62,51.55Zm-66.15-54.22c-1.69,1.07-.6,2.37-.27,3.58,1.28,4.59,4.38,7.9,7.7,11.12,9.46,9.2,20.76,11.1,32.77,7.21,12.18-3.95,20.62-12.25,22.31-25.46.54-4.27,2.27-9.31-1.48-13.37,0-1.35,0-2.69-.03-4.04-.54-24.72-25.65-40.48-47.6-30.03-17.63,8.4-25.89,31.63-13.4,50.98Zm-363.56-57.13c9.46-4.72,18.63-10,28.47-14,18.81-7.65,38.24-13.21,57.93-17.97,11.17-2.35,22.33-4.77,33.52-6.99,2.41-.48,2.77-1.01,1.09-2.84-3.19-3.46-6.2-7.09-9.45-10.5-18.02-18.93-37.54-35.9-61.49-47.06-6.6-3.08-13.45-5.56-20.72-6.48-19.76-2.5-33.58,6.17-42.62,27.07-11.34,26.19-16.38,53.68-16.02,82.17.07,5.26.84,10.47,2.72,15.43.4,1.04.8,3.35,2.57,1.41,7.11-7.82,15.83-13.68,23.99-20.23Zm415.09-43.85c.81,1.49,2.42,1.62,3.77,2.11,8.36,3.08,16.21,7.22,23.93,11.62,1.61.91,4.31,2.85,4.67,2.48,1.57-1.58.8-4.01.46-6.01-5.81-33.89-18.12-65.14-39.66-92.11-15-18.78-31.26-20.74-51.46-7.75-13.34,8.58-24.79,19.36-35.58,30.9-12.36,13.2-23.42,27.43-33.8,42.22-.56.79-3.36,2.95.35,2.97,12.5.07,25.01-.21,37.51-.35,7.11,2.26,14.51.97,21.76,1.56,16.42,1.35,32.73,3.14,48.72,7.17,6.46,1.63,12.88,3.46,19.31,5.2Zm-330.53,215.15c3.07-2.06,1.61-5.12,1.2-7.57-.43-2.6-.26-3.58,2.58-3.94,6.61-.83,13.16-2.22,19.77-3.03,20.37-2.51,30.06-18.49,22.26-37.04-.22-.53-1.29-.7-1.96-1.04-.22-1.46-.44-2.93-.65-4.39-2.2-15.27-9.75-20.95-25.03-18.8-7.86,1.11-15.73,2.12-23.55,3.44-2.7.46-3.47-.19-3.72-2.87-.76-7.9-1.56-15.82-2.84-23.65-1.74-10.67-10.59-18.22-21.4-18.49-3.6-.09-7.24.43-10.84.91-15.8,2.12-24.69,13.9-22.53,29.59.92,6.66,1.47,13.38,2.42,20.04.29,2.05-.34,2.6-2.17,2.84-7.86,1.05-15.7,2.26-23.56,3.27-10.21,1.31-18.12,8.16-18.9,18.02-.74,9.37-.43,18.88,4.62,27.42.2,11.41,8.81,18.23,20.15,16.28,9.32-1.61,18.72-2.82,28.08-4.21,1.77,8.04.88,16.65,5.19,24.14.13,4.62,1.91,8.51,4.95,11.97,6.17,7.03,13.99,7.64,22.66,6.79,23.86-2.32,30.27-17.11,25.6-36.79-.29-1.23-1.22-1.25-2.17-1.33-.05-.53-.1-1.06-.15-1.59Z" style="fill: #fbfbfc; stroke-width: 0px;"/>
  <path d="m210.98,385.04c29.53-9.19,58.96-18.74,88.62-27.48,58.42-17.23,117-33.91,175.45-51.01,39.24-11.48,78.38-23.28,117.58-34.91,4.94-1.47,8.82-4.49,12.43-7.97,4.46,2.96,5.04,7.85,4.99,12.32-.16,12.98-8.14,21.4-18.01,28.36-13.78,9.71-29.89,13.99-45.61,18.99-23.66,7.53-47.52,14.43-71.26,21.71-34.5,10.58-68.84,21.7-103.84,30.63-37.01,9.44-73.85,19.53-110.85,29-11.97,3.07-24.16,4.87-36.27-.2-7.86-3.29-13.18-10.76-13.23-19.44Z" style="fill: #c9e0fb; stroke-width: 0px;"/>
  <path d="m594.02,197.41c27.21.53,54.08,3.93,80.77,9.18,14.88,2.93,29.34,7.33,43.93,11.28-2.62,6.86-5.15,13.77-8.98,20.09-4.96-4.08-11.3-4.75-17.11-6.28-24.19-6.36-48.79-10.54-73.76-12.47-6.12-.47-12.23-1.05-18.35-1.57-2.17-6.75-4.34-13.49-6.51-20.24Z" style="fill: #aecffb; stroke-width: 0px;"/>
  <path d="m101.07,456.28c-8.7-1.81-16.78-4.75-22.25-12.37-2.49-3.46-3.39-7.23-1.92-11.39,3.37-9.59,8.25-18.2,16.1-24.89,1.66,9.49,3.42,18.97,4.93,28.48,1.06,6.72,3.98,13.15,3.15,20.16Z" style="fill: #fefefe; stroke-width: 0px;"/>
  <path d="m275.54,534.7c-.06,1-.12,2.01-.17,3.01-7.77,6.44-13.53,14.69-19.99,22.31-3.03-7.32-6.07-14.64-9.1-21.96,6.05-7.01,15.29-6.54,22.95-9.76,1.26-.53,2.11.36,2.43,1.86.45,2.13,1.35,4.09,3.88,4.54Z" style="fill: #c9e0fb; stroke-width: 0px;"/>
  <path d="m308.55,299.35c.13-6.25,3.18-8.26,7.22-9.51,37-11.42,73.98-22.88,110.97-34.33,6.42-1.99,12.81-4.1,19.28-5.92,6.21-1.76,9.67.25,11.69,6.43,1.71,5.24,3.47,10.47,5.04,15.76,2.27,7.64.39,11.24-7.38,13.61-31.24,9.54-62.51,18.98-93.77,28.45-11.96,3.62-23.91,7.29-35.92,10.76-6.29,1.82-9.57-.23-11.47-6.57-2-6.68-4.04-13.36-5.65-18.67Z" style="fill: #c9e0fb; stroke-width: 0px;"/>
  <path d="m502.61,216.99c-4.69,0-7.43-2.14-8.71-5.95-2.3-6.89-4.53-13.81-6.52-20.79-1.58-5.52.79-9.97,6.19-11.77,17.09-5.7,34.2-11.33,51.34-16.87,6.08-1.96,10.31.29,12.26,6.28,2.21,6.78,4.44,13.55,6.43,20.4,1.5,5.17-.43,9.24-5.38,11.14-17.46,6.69-35.31,12.26-53.31,17.29-.89.25-1.86.23-2.29.28Z" style="fill: #c9e0fb; stroke-width: 0px;"/>
  <path d="m229.98,204.61c5.7-.31,8.39,1.87,9.72,5.68,2.26,6.48,4.47,12.99,6.47,19.56,1.63,5.36-.26,9.56-5.57,11.3-15.85,5.21-31.75,10.29-47.73,15.07-5.36,1.6-9.49-.48-11.19-6.3-1.59-5.43-3.4-10.78-5-16.21-1.92-6.52-.36-10.2,5.83-13.17,14.62-7.03,30.08-11.67,45.73-15.72,1.03-.27,2.13-.26,1.75-.22Z" style="fill: #c9e0fb; stroke-width: 0px;"/>
  <path d="m359.77,254.3c-.17,5.11-2.18,8.03-5.98,9.29-9.56,3.18-19.15,6.26-28.81,9.12-5.18,1.53-9-.43-10.71-5.69-2.2-6.77-4.35-13.57-6.34-20.4-1.71-5.88.27-10.11,6.09-12.14,9.38-3.28,18.86-6.3,28.37-9.2,3.74-1.14,7.44.21,9.03,3.6,3.95,8.39,6.12,17.43,8.35,25.42Z" style="fill: #c9e0fb; stroke-width: 0px;"/>
  <path d="m316.62,184.85c.34-5.69,2.32-8.7,6.29-10.06,8.76-3,17.54-5.98,26.38-8.72,6.4-1.98,10.4.2,12.44,6.51,2.19,6.77,4.3,13.57,6.32,20.39,1.54,5.19-.73,8.89-5.45,10.6-9.46,3.44-19.07,6.47-28.64,9.59-4.05,1.32-7.85-.15-9.24-3.72-3.3-8.46-5.74-17.26-8.1-24.6Z" style="fill: #c9e0fb; stroke-width: 0px;"/>
  <path d="m427.65,176.43c-.51,4.89-2.37,7.77-6.27,9.05-8.81,2.9-17.59,5.87-26.45,8.57-5.42,1.65-9.18-.53-10.96-5.91-2.19-6.64-4.35-13.29-6.42-19.97-1.91-6.14.44-11.01,6.53-13.12,8.25-2.87,16.56-5.55,24.88-8.2,4.03-1.29,8.01-.36,9.86,3.35,4.26,8.55,6.08,17.99,8.84,26.23Z" style="fill: #d9e9fb; stroke-width: 0px;"/>
  <path d="m272.43,232.31c-5.44-.12-8.25-1.79-9.48-5.34-2.34-6.73-4.52-13.52-6.61-20.33-1.7-5.56.46-9.71,5.69-11.69,9.04-3.41,18.2-6.56,27.43-9.43,5.53-1.72,9.91.88,11.67,6.36,2.17,6.78,4.19,13.62,6.22,20.44,1.14,3.84-.04,7.76-3.36,9.06-10.86,4.23-22.02,7.68-31.56,10.92Z" style="fill: #c9e0fb; stroke-width: 0px;"/>
  <path d="m581.1,240.96c-.52,4.54-2.53,7.52-6.53,8.9-9.03,3.1-18.07,6.16-27.19,8.95-5.34,1.63-9.22-.34-10.98-5.84-2.13-6.66-4.3-13.31-6.31-20.01-1.67-5.56.73-10.22,6.29-12.09,8.66-2.91,17.37-5.69,26.07-8.48,4.22-1.35,8.5-.52,10.13,3.44,3.36,8.16,5.74,16.72,8.52,25.12Z" style="fill: #c9e0fb; stroke-width: 0px;"/>
  <path d="m436.25,146.12c-.02-5.97,2.5-8.68,6.55-10.06,8.14-2.78,16.3-5.5,24.5-8.1,5.41-1.72,9.66.37,11.51,5.75,2.41,6.99,4.7,14.02,6.78,21.11,1.68,5.71-.62,10.18-6.26,12.15-8.37,2.92-16.82,5.61-25.26,8.32-4.14,1.33-7.84.16-9.64-3.68-4.01-8.53-5.96-17.77-8.18-25.49Z" style="fill: #d9e9fb; stroke-width: 0px;"/>
  <path d="m419.63,234.61c-.08,5.99-2.27,8.8-6,10.06-9.16,3.09-18.39,5.96-27.62,8.83-5.07,1.57-8.47-.62-10.08-5.36-2.36-7-4.43-14.09-6.56-21.17-1.58-5.25.41-9.31,5.27-11.12,9.17-3.43,18.52-6.43,27.9-9.23,3.62-1.08,7.6.23,8.97,3.75,3.29,8.47,5.83,17.24,8.12,24.25Z" style="fill: #c9e0fb; stroke-width: 0px;"/>
  <path d="m511.59,157.03c-5.9.1-8.52-2.22-9.77-6-2.44-7.41-4.93-14.83-6.86-22.38-1.42-5.55.77-9.83,6.46-11.75,7.78-2.62,15.57-5.2,23.39-7.66,5.42-1.7,9.42.4,11.32,5.54,2.75,7.44,5.16,15.03,7.43,22.63,1.15,3.84-.03,7.79-3.5,9.55-9.5,4.83-20.03,6.86-28.47,10.05Z" style="fill: #d9e9fb; stroke-width: 0px;"/>
  <path d="m428.22,206.4c.28-5.6,2.09-8.44,5.8-9.7,8.66-2.95,17.32-5.87,26.05-8.59,5.77-1.8,9.82.32,11.72,6.01,2.25,6.76,4.39,13.57,6.33,20.43,1.47,5.2-.39,9.12-5.59,10.87-8.92,3.01-17.91,5.81-26.89,8.63-3.82,1.2-7.66.16-9.06-3.29-3.4-8.44-5.97-17.23-8.37-24.36Z" style="fill: #c9e0fb; stroke-width: 0px;"/>
  <path d="m282.18,244.25c5.54-.1,8.2,1.95,9.46,5.61,2.31,6.74,4.5,13.53,6.57,20.35,1.66,5.46-.64,9.4-5.71,11.26-8.96,3.29-18.02,6.3-27.14,9.14-4.77,1.49-8.25-.79-9.85-5.29-2.3-6.46-4.36-13.02-6.25-19.61-1.89-6.59.25-10.77,6.72-12.98,9.14-3.13,18.38-5.97,26.2-8.49Z" style="fill: #c9e0fb; stroke-width: 0px;"/>
  <path d="m205.89,308.28c-5.49.1-8.19-1.98-9.45-5.87-2.1-6.53-4.23-13.06-6.08-19.67-1.45-5.16.35-9.14,5.48-11.01,8.84-3.22,17.73-6.34,26.69-9.23,4.43-1.43,8.17.18,9.94,4.56,2.98,7.36,5.51,14.9,7.21,22.68.75,3.41-.51,6.56-3.45,7.96-10.09,4.81-20.96,7.44-30.35,10.58Z" style="fill: #c9e0fb; stroke-width: 0px;"/>
  <path d="m521.33,260.8c-.21,3.34-2.13,6.42-6.15,7.73-8.17,2.68-16.37,5.27-24.62,7.72-5.42,1.61-9.3-.45-11.07-5.81-2.24-6.76-4.38-13.56-6.29-20.43-1.51-5.46.81-9.69,6.08-11.45,7.77-2.61,15.59-5.09,23.41-7.55,4.24-1.33,7.98-.76,10.65,3.25,1.27,1.9,7.99,23.44,7.99,26.54Z" style="fill: #c9e0fb; stroke-width: 0px;"/>
  <path d="m248.82,341.59c-.42,4.39-2.27,7.22-5.97,8.44-7.28,2.41-14.57,4.78-21.93,6.93-4.74,1.39-8-1.1-9.51-5.29-2.37-6.57-4.41-13.29-6.17-20.05-1.26-4.85.86-8.47,5.65-10.09,6.76-2.27,13.58-4.35,20.39-6.44,3.63-1.12,7.41-.96,9.33,2.6,4.1,7.63,5.62,16.22,8.21,23.89Z" style="fill: #c9e0fb; stroke-width: 0px;"/>
  <path d="m256.88,314.98c.17-5.04,1.88-8.02,5.83-9.3,6.89-2.22,13.81-4.38,20.76-6.45,5.23-1.57,8.76.82,10.47,5.56,2.27,6.31,4.14,12.77,5.99,19.22,1.33,4.62-.58,8.1-4.93,9.66-7.32,2.63-14.78,4.85-22.21,7.16-3.54,1.1-6.87-.1-8.36-3.15-3.66-7.49-5.5-15.65-7.55-22.71Z" style="fill: #c9e0fb; stroke-width: 0px;"/>
  <path d="m401.56,848.21c12.4-22.31,22.01-46.25,38.79-66,5.76-6.78,12.61-12.06,20.41-16.2,21.45-5.06,43.42-6.57,65.16-9.67,18.3-2.61,36.68-4.68,55.03-6.92,17.02-2.08,34.06-4.08,51.08-6.12,24.19,4.35,40.47,20.56,56.18,37.59,2.72,2.95,5.14,6.19,7.7,9.29-4.84,3.31-10.61,2.65-15.92,3.11-18.69,1.65-36.06,7.14-53.01,15.08-34.8,16.31-70.5,30.36-108.13,38.83-24.39,5.49-49.21,6.03-74.04,5.17-13.49-.47-26.94-2.04-40.41-3.09-1.08-.08-2.18.02-2.86-1.07Z" style="fill: #c9e0fb; stroke-width: 0px;"/>
  <path d="m864.54,658.77c-6.08-21.44-11.82-42.99-19.99-63.79-13.37-34.08-30-66.13-56.53-92.12-1.97-1.93-5.59-3.13-5.57-5.99.04-5.05,1.17-10.11,2-15.13.09-.52,1.24-.86,1.9-1.29,11.83,5.1,20.34,14.38,28.91,23.45,34.75,36.79,54.36,81.6,68.03,129.5,1.29,4.52,2.35,9.1,3.51,13.65-3.16-.23-5.75-3.19-9.61-.82-2.59,1.59-5.13,2.9-6.2,5.7-1.25,3.26-3.28,5.52-6.45,6.84Z" style="fill: #5085f0; stroke-width: 0px;"/>
  <path d="m255.38,560.02c6.45-7.63,12.21-15.87,19.99-22.31,5.37-.24,4.59,5.15,6.95,7.68,2.73,2.93,2.05,5.62-.36,8.79-23.12,30.48-34.25,65.82-40.95,102.85-5.1,28.24-8.06,56.7-7.77,85.44.02.84.04,1.68.06,2.52.01.55.03,1.11.04,1.66-.04,2.54-.18,5.08-.1,7.62.42,14.75,1.95,29.42,3.67,44.06-8.3-.23-11.97-5.85-14.64-12.63-.69-1.75-1.2-4.01-3.68-3.38-3.23.81-3.97,3.72-4.32,6.58-.23,1.87-.21,3.24,2.53,3.95,8.16,2.13,9.62,5.23,5.53,10.25-2.54,3.11-5.66-.32-8.43.71-.06,1.24,1.11,1.31,1.84,1.74,1.26.74,2.94,1.21,2.34,3.17-.65,2.13-2.27,1.66-3.96,1.39-1.26-.2-2.61.21-3.92.35-4.17-22.95-5.39-46.08-4.45-69.36.78-19.34,3.05-38.51,6.02-57.61,2.61-12.19,5.03-24.43,7.88-36.57,2.23-9.5,4.99-18.88,7.52-28.32,5.16-11.74,8.87-24.1,14.96-35.45,3.85-7.17,7.37-14.55,12.64-20.88.45-.54.42-1.49.61-2.25Z" style="fill: #5085f0; stroke-width: 0px;"/>
  <path d="m227.17,618.59c-2.53,9.44-5.28,18.82-7.52,28.32-2.85,12.14-5.28,24.37-7.88,36.57-14.57-2.92-25.5-11.38-34.36-22.85-10.42-13.49-14.75-29.07-14.81-45.87-.02-5.57.62-11.23,2.34-16.65,11.89-5.74,22.28-5.01,32.16,5.08,8.08,8.25,17.5,15.29,30.08,15.41Z" style="fill: #c9e0fb; stroke-width: 0px;"/>
  <path d="m77.91,596.05c-4.87-.28-7.14-2.99-8.3-6.94-1.19-4.07-.15-7.42,3.3-9.94.43-.31.93-.62,1.44-.7,7.54-1.25,8.43-5.19,5.56-11.76-1.98-4.51,1.17-8.99,6.5-10.68,5.04-1.6,9.04-.62,11.11,4.78.19.5.4,1.01.48,1.54.77,5.29,2.85,6.82,8.19,4.14,5.98-3,10.33-.99,12.39,4.51,2.2,5.88.47,10.38-5.97,12.18-6.33,1.77-7.06,4.51-4.45,10.09,2.61,5.6.02,10.18-5.98,12.18-5.8,1.94-10.12.11-11.33-5.87-1.3-6.4-3.92-7.94-9.51-4.59-1.11.66-2.54.79-3.42,1.05Z" style="fill: #fbfbfc; stroke-width: 0px;"/>
  <path d="m176.01,537.04c5.59.03,9.98,4.55,9.83,10.13-.14,5.41-4.81,9.86-10.34,9.84-5.23-.02-9.7-4.68-9.59-9.99.12-5.58,4.59-10,10.1-9.97Z" style="fill: #fbfbfc; stroke-width: 0px;"/>
  <path d="m209.32,558.06c.08,5.35-4.48,10.04-9.9,10.17-5.39.13-9.89-4.42-9.91-10.02-.03-5.47,4.43-9.8,10.1-9.83,5.35-.03,9.64,4.24,9.72,9.69Z" style="fill: #fbfbfc; stroke-width: 0px;"/>
  <path d="m201.43,534.86c0-5.44,4.62-9.97,10.1-9.92,5.41.05,9.66,4.47,9.54,9.92-.12,5.31-5,9.98-10.32,9.85-5.01-.12-9.33-4.68-9.33-9.84Z" style="fill: #fbfbfc; stroke-width: 0px;"/>
  <path d="m198.22,523.22c-.07,5.43-4.43,9.81-9.71,9.76-5.47-.05-9.97-4.68-9.81-10.13.15-5.39,4.87-9.89,10.27-9.8,5.25.09,9.32,4.56,9.25,10.16Z" style="fill: #fbfbfc; stroke-width: 0px;"/>
  <path d="m700.57,742.88c1.62-2.18,2.97-.11,4.1.49,14.52,7.82,28.91,15.89,43.95,22.72,15.24,6.93,31.01,12.49,47.83,12.65,29.93.28,53.32-15.87,64.41-47.66,4.82-13.81,6.71-28.09,7.16-42.64.05-1.74-.91-3.86,1.3-5.1,6.25,31.38,12.07,62.82,3.52,94.71-8.29,30.93-35.13,51.15-65.89,49.38-18.69-1.08-34-10.26-47.89-22.1-16.37-13.96-29.59-30.9-43.93-46.77-4.78-5.29-9.7-10.46-14.55-15.68Z" style="fill: #e5effb; stroke-width: 0px;"/>
  <path d="m632.04,743.3c-17.03,2.04-34.06,4.04-51.08,6.12-18.35,2.25-36.73,4.31-55.03,6.92-21.74,3.1-43.71,4.61-65.16,9.67-12.5-3.91-25.24-6.6-38.33-7.58,7.73-8.3,17.71-12.99,28.05-16.82,18.56-6.88,38.16-8.84,57.62-11.13,28.66-3.37,57.33-6.8,86.07-9.42,19.85-1.81,39.72-5.84,59.78-1.95,10.04,1.95,19.84,4.57,28.28,10.74-3.33,2.57-7.39,1.42-11.07,2.01-13.55,2.16-26.62,5.8-39.13,11.43Z" style="fill: #89b3fb; stroke-width: 0px;"/>
  <path d="m817.88,864.66c-4.85.9-9.7.97-14.55-.03,4.85-1.3,9.7-1.34,14.55.03Z" style="fill: #5085f0; stroke-width: 0px;"/>
  <path d="m892.53,669.66c.45,1.9.9,3.8,1.35,5.7-2.16,1.36-3.52.61-3.95-1.73-.38-2.02-.51-4.12,2.6-3.97Z" style="fill: #5085f0; stroke-width: 0px;"/>
  <path d="m738.88,837.05c-1.13.08-1.75-.42-1.8-1.57.6.52,1.2,1.05,1.8,1.57Z" style="fill: #c9e0fb; stroke-width: 0px;"/>
  <path d="m127.75,689.95c.06-.1.11-.21.17-.31-.06.1-.12.2-.18.3,0,0,.01.01.01.01Z" style="fill: #fefefe; stroke-width: 0px;"/>
  <path d="m236.91,798.32c-1.72-14.65-3.25-29.31-3.67-44.06-.07-2.54.06-5.08.1-7.62,2.3-.4,2.44,1.04,2.82,2.82,3.58,16.36,8.73,32.04,18.22,46.17,19.09,28.41,48.83,34.8,79.01,23.85,21.17-7.69,38.28-21.94,55.7-35.62,7.17-5.63,14.41-11.17,21.59-16.78.91-.71,1.77-1.22,2.92-.68-18.05,22.78-28.82,50.14-46.08,73.39-12.59,16.96-27.4,31.18-49.19,35.44-26.68,5.22-50.15-5.07-64.65-28.14-.42-.67-.98-1.27-1.47-1.9-1.12-2.27-2.2-4.55-3.35-6.8-4.63-9.1-6.79-19.07-10-28.67l-.07-.96c-.09-.5-.17-1-.26-1.5-.29-.32-.57-.63-.86-.95l.08-.02c-.29-2.65-.58-5.31-.87-7.96Z" style="fill: #e5effb; stroke-width: 0px;"/>
  <path d="m238.55,807.25c.09.5.17,1,.26,1.5-.79.38-.71.69.07.96,3.2,9.6,5.36,19.57,10,28.67,1.15,2.25,2.24,4.54,3.35,6.8-6.15,2.7-12.05-1.09-12.09-7.95-.02-2.65-.46-4.35-3.24-5.6-3.44-1.55-3.76-5.67-5.46-8.66-1.7-2.98-3.86-5.97-.14-9.04.1-.08.24-.28.21-.33-5.29-8.8,5.27-3.96,6.29-7.32,0,0-.08.02-.08.02.29.32.57.63.86.95Z" style="fill: #5085f0; stroke-width: 0px;"/>
  <path d="m354.05,706.04c-4.31-7.49-3.42-16.1-5.19-24.14-.21-2-.55-3.99-.59-5.99-.09-3.85-1.57-4.91-5.52-4.08-6.94,1.47-14.06,2.12-21.05,3.38-7.9,1.42-15.27,1.21-21.07-5.38-5.05-8.54-5.36-18.05-4.62-27.42.78-9.86,8.7-16.71,18.9-18.02,7.86-1.01,15.7-2.23,23.56-3.27,1.83-.24,2.46-.8,2.17-2.84-.95-6.66-1.5-13.37-2.42-20.04-2.16-15.68,6.73-27.46,22.53-29.59,3.59-.48,7.23-1,10.84-.91,10.81.26,19.66,7.82,21.4,18.49,1.28,7.83,2.08,15.74,2.84,23.65.26,2.69,1.02,3.33,3.72,2.87,7.82-1.32,15.69-2.34,23.55-3.44,15.27-2.15,22.83,3.53,25.03,18.8.21,1.46.44,2.93.65,4.39-.03.53-.12,1.07-.08,1.6,1.1,14.57-5.7,23.07-20.19,25.26-7.95,1.21-15.9,2.47-23.85,3.72-1.24.19-2.79-.16-2.45,2.12.98,6.62,1.82,13.27,2.72,19.9.05.53.1,1.06.15,1.59.63,11.66-3.53,21.14-14.9,24.82-12.53,4.05-25.78,7.31-36.14-5.46Zm-8.08-110.65c.04,3.02.73,5.48,3.54,6.5,2.89,1.05,4.98-.62,6.48-2.79,2.67-3.86,5.09-7.9,7.65-11.84,1.72-2.65,2.09-5.39-.23-7.72-2.27-2.29-5.13-2.16-7.79-.6-6.37,3.73-8.91,9.73-9.66,16.45Z" style="fill: #4f80ed; stroke-width: 0px;"/>
  <path d="m645.68,456.02c-12.5.15-25.01.43-37.51.35-3.71-.02-.91-2.17-.35-2.97,10.37-14.78,21.44-29.01,33.8-42.22,10.8-11.54,22.24-22.32,35.58-30.9,20.19-12.98,36.46-11.03,51.46,7.75,21.54,26.97,33.85,58.22,39.66,92.11.34,2,1.11,4.43-.46,6.01-.36.36-3.07-1.57-4.67-2.48-7.73-4.39-15.57-8.54-23.93-11.62-1.35-.5-2.96-.62-3.77-2.11-.02-1.21.2-2.48-.1-3.61-5.11-19.3-11.31-38.19-22.9-54.75-5.9-8.43-9.66-9.36-18.74-4.48-13.23,7.12-23.61,17.73-33.37,28.87-5.45,6.22-11.23,12.31-14.7,20.04Z" style="fill: #77a2f6; stroke-width: 0px;"/>
  <path d="m320.39,513.8c-8.16,6.54-16.89,12.41-23.99,20.23-1.77,1.95-2.17-.37-2.57-1.41-1.89-4.96-2.66-10.17-2.72-15.43-.36-28.49,4.68-55.98,16.02-82.17,9.05-20.9,22.87-29.57,42.62-27.07,7.27.92,14.11,3.4,20.72,6.48,23.94,11.16,43.47,28.14,61.49,47.06,3.24,3.41,6.26,7.04,9.45,10.5,1.69,1.83,1.32,2.37-1.09,2.84-11.19,2.22-22.35,4.64-33.52,6.99-13.38-17.74-29.17-32.65-49.7-41.83-8.31-3.72-13.69-1.84-18.28,6.1-7.12,12.33-11.56,25.72-14.8,39.51-2.17,9.26-4.66,18.51-3.63,28.19Z" style="fill: #77a2f6; stroke-width: 0px;"/>
  <path d="m320.39,513.8c-1.03-9.69,1.46-18.94,3.63-28.19,3.24-13.79,7.68-27.18,14.8-39.51,4.58-7.95,9.97-9.82,18.28-6.1,20.53,9.18,36.32,24.09,49.7,41.83-19.69,4.76-39.12,10.32-57.93,17.97-9.83,4-19.01,9.28-28.47,14Z" style="fill: #c3c2fb; stroke-width: 0px;"/>
  <path d="m683.95,570.93c-12.49-19.36-4.22-42.59,13.4-50.98,21.95-10.45,47.06,5.31,47.6,30.03.03,1.35.02,2.69.03,4.04-2.82,14.68-10.46,25.39-25.46,29.19-14.31,3.62-26.23-.87-35.57-12.27Z" style="fill: #f9d73d; stroke-width: 0px;"/>
  <path d="m645.68,456.02c3.46-7.73,9.25-13.82,14.7-20.04,9.76-11.14,20.14-21.75,33.37-28.87,9.08-4.89,12.85-3.96,18.74,4.48,11.58,16.57,17.79,35.45,22.9,54.75.3,1.13.08,2.4.1,3.61-6.44-1.74-12.85-3.57-19.31-5.2-16-4.03-32.3-5.81-48.72-7.17-7.25-.6-14.65.69-21.76-1.56Z" style="fill: #c3c2fb; stroke-width: 0px;"/>
  <path d="m750.1,625.16c-13.59-19.53-4.23-43.49,13.62-51.55,21.83-9.87,46.69,6.15,46.72,30.19,0,1.48-.02,2.96-.02,4.43-1.14,4.98-2.48,9.85-5.35,14.23-11.55,17.61-38.08,22.46-54.97,2.71Z" style="fill: #fc994c; stroke-width: 0px;"/>
  <path d="m632.04,629.27c-7.01-13.57-7.32-26.82,2.27-39.38,8.39-10.99,22.93-15.42,35.73-11.16,13.74,4.57,22.93,16.7,23.27,30.72.04,1.48,0,2.96,0,4.44-2.32,12-7.99,21.68-19.63,26.66-15.39,6.59-28.43,2.91-41.65-11.29Z" style="fill: #55c7cd; stroke-width: 0px;"/>
  <path d="m692.72,680.72c-6.27-11.81-6.74-23.5.24-35.3,7.43-12.55,22.29-18.76,36.87-15.08,13.57,3.43,23.63,16.19,24.05,30.49.03,1.07.12,2.15.18,3.22-2.04,13.11-8.27,23.36-20.97,28.28-16.16,6.26-29.63,1.69-40.38-11.61Z" style="fill: #fc959b; stroke-width: 0px;"/>
  <path d="m547.25,626.6c-2.42.08-4.88-.1-7.25.29-5.79.96-11.79.03-15.93,6.81-4.32,7.06-15.25,7.17-21.98,1.69-6.01-4.9-6.83-14.76-1.8-21.58,4.5-6.1,15.46-8.43,20.82-2.89,5.77,5.96,11.86,3.7,18.09,3.61,2.4-.03,4.79-.32,7.19-.49-.82,4.27-1.34,8.51.86,12.57Z" style="fill: #aecffb; stroke-width: 0px;"/>
  <path d="m750.1,625.16c16.88,19.75,43.42,14.91,54.97-2.71,2.87-4.38,4.21-9.24,5.35-14.23,4.74,4.5,3.13,10.46,2.22,15.35-2.44,13-10.86,21.55-23.6,24.77-13.21,3.34-24.91.31-33.86-10.81-2.03-2.53-3.89-5.08-5.31-7.98-.76-1.55-1.21-3,.23-4.39Z" style="fill: #e5effb; stroke-width: 0px;"/>
  <path d="m547.25,626.6c-2.2-4.06-1.67-8.31-.86-12.57,6.33-9.66,14.57-12.72,22.59-8.37,5.69,3.08,8.93,9.63,7.89,15.96-1.11,6.74-6.37,11.82-13.59,13.12-6.54,1.18-12.29-1.74-16.03-8.13Z" style="fill: #aecffb; stroke-width: 0px;"/>
  <path d="m683.95,570.93c9.34,11.4,21.26,15.89,35.57,12.27,14.99-3.79,22.64-14.5,25.46-29.19,3.75,4.06,2.02,9.1,1.48,13.37-1.68,13.21-10.13,21.51-22.31,25.46-12.01,3.9-23.3,1.99-32.77-7.21-3.32-3.23-6.41-6.53-7.7-11.12-.34-1.21-1.42-2.51.27-3.58Z" style="fill: #e5effb; stroke-width: 0px;"/>
  <path d="m692.72,680.72c10.75,13.31,24.22,17.87,40.38,11.61,12.69-4.92,18.93-15.17,20.97-28.28,5.07,9.34,2.18,18.11-2.75,26.14-9.23,15.04-32.09,19.58-46.43,9.46-6.49-4.58-11.47-10.46-12.17-18.93Z" style="fill: #e5effb; stroke-width: 0px;"/>
  <path d="m632.04,629.27c13.22,14.2,26.27,17.87,41.65,11.29,11.65-4.99,17.31-14.66,19.63-26.66,3.28,4.69,2.48,9.99,1.37,14.87-5.18,22.68-33.66,32.55-51.94,18.03-5.58-4.43-10.85-9.42-10.71-17.53Z" style="fill: #e5effb; stroke-width: 0px;"/>
  <path d="m404.95,685.1c-.9-6.64-1.73-13.28-2.72-19.9-.34-2.28,1.21-1.92,2.45-2.12,7.95-1.24,15.89-2.51,23.85-3.72,14.49-2.2,21.29-10.7,20.19-25.26-.04-.53.05-1.07.08-1.6.67.34,1.74.51,1.96,1.04,7.8,18.55-1.89,34.53-22.26,37.04-6.61.81-13.16,2.2-19.77,3.03-2.84.36-3.01,1.34-2.58,3.94.41,2.45,1.87,5.5-1.2,7.57Z" style="fill: #e5effb; stroke-width: 0px;"/>
  <path d="m354.05,706.04c10.37,12.77,23.61,9.52,36.14,5.46,11.37-3.68,15.54-13.17,14.9-24.82.95.08,1.88.1,2.17,1.33,4.67,19.68-1.74,34.47-25.6,36.79-8.67.84-16.49.24-22.66-6.79-3.04-3.46-4.81-7.35-4.95-11.97Z" style="fill: #e5effb; stroke-width: 0px;"/>
  <path d="m300.64,669.83c5.8,6.59,13.17,6.79,21.07,5.38,6.99-1.25,14.11-1.91,21.05-3.38,3.95-.83,5.43.23,5.52,4.08.04,2,.38,3.99.59,5.99-9.36,1.39-18.75,2.6-28.08,4.21-11.34,1.95-19.95-4.86-20.15-16.28Z" style="fill: #e5effb; stroke-width: 0px;"/>
  <path d="m233.3,744.98c-.02-.84-.04-1.68-.06-2.52.89.12,1.92.16,1.8,1.42-.09.96-.97,1.02-1.74,1.1Z" style="fill: #e5effb; stroke-width: 0px;"/>
  <path d="m238.55,807.25c-.29-.32-.57-.63-.86-.95.29.32.57.63.86.95Z" style="fill: #4f80ed; stroke-width: 0px;"/>
  <path d="m238.87,809.7c-.78-.26-.86-.58-.07-.96.02.32.05.64.07.96Z" style="fill: #4f80ed; stroke-width: 0px;"/>
  <path d="m345.98,595.4c.75-6.72,3.29-12.72,9.66-16.45,2.67-1.56,5.52-1.7,7.79.6,2.31,2.34,1.95,5.07.23,7.72-2.56,3.94-4.98,7.98-7.65,11.84-1.5,2.17-3.59,3.84-6.48,2.79-2.81-1.02-3.5-3.47-3.54-6.5Z" style="fill: #aecffb; stroke-width: 0px;"/>
  <path d="m814.83,235.72c18.65,7.06,37.29,14.12,55.95,21.16,2.86,1.08,5.64,2.54,8.83,2.44-1.35,4.04-2.7,8.07-4.06,12.11-9.6-1.67-18.1-6.45-27.15-9.68-12.98-4.63-25.8-9.73-38.68-14.63,1.12-4.06,3.01-7.78,5.11-11.41Z" style="fill: #6492f1; stroke-width: 0px;"/>
</svg>